<svg xmlns="http://www.w3.org/2000/svg" viewBox="40 0 1300 470" width="1300" height="470">
  <rect x="40" y="0" width="1300" height="470" fill="#ffffff"/>
  <text x="540.0" y="44.0" font-size="24" font-family="'Cascadia Code', 'JetBrains Mono', Consolas, monospace" fill="#1e40af" opacity="1"><tspan x="540.0" dy="0" text-anchor="middle">MoE 层：路由器选 Top-K 专家，稀疏激活</tspan></text>
  <text x="540.0" y="70.0" font-size="14" font-family="'Cascadia Code', 'JetBrains Mono', Consolas, monospace" fill="#64748b" opacity="1"><tspan x="540.0" dy="0" text-anchor="middle">总参数大（全部专家加载进显存），单次激活参数小（只算 Top-K）</tspan></text>
  <rect x="60" y="240" width="140" height="70" rx="8" ry="8" fill="#a5d8ff" stroke="#1e1e1e" stroke-width="2" opacity="1"/><text x="130.0" y="268.6" font-size="16" font-family="'Cascadia Code', 'JetBrains Mono', Consolas, monospace" fill="#1e1e1e" opacity="1"><tspan x="130.0" dy="0" text-anchor="middle">token x</tspan><tspan x="130.0" dy="20" text-anchor="middle">(d 维向量)</tspan></text>
  <rect x="280" y="240" width="160" height="70" rx="8" ry="8" fill="#ffd43b" stroke="#1e1e1e" stroke-width="2" opacity="1"/><text x="360.0" y="268.6" font-size="16" font-family="'Cascadia Code', 'JetBrains Mono', Consolas, monospace" fill="#1e1e1e" opacity="1"><tspan x="360.0" dy="0" text-anchor="middle">Router / Gate</tspan><tspan x="360.0" dy="20" text-anchor="middle">W_g · x → softmax</tspan></text>
  <rect x="520" y="240" width="140" height="70" rx="8" ry="8" fill="#ffd43b" stroke="#1e1e1e" stroke-width="2" opacity="1"/><text x="590.0" y="268.6" font-size="16" font-family="'Cascadia Code', 'JetBrains Mono', Consolas, monospace" fill="#1e1e1e" opacity="1"><tspan x="590.0" dy="0" text-anchor="middle">Top-K 选择</tspan><tspan x="590.0" dy="20" text-anchor="middle">(K=2)</tspan></text>
  <text x="590.0" y="332.0" font-size="12" font-family="'Cascadia Code', 'JetBrains Mono', Consolas, monospace" fill="#64748b" opacity="1"><tspan x="590.0" dy="0" text-anchor="middle">得分 g = [0.05, 0.6, 0.3, 0.05]</tspan></text>
  <rect x="740" y="100" width="160" height="60" rx="8" ry="8" fill="#f1f5f9" stroke="#94a3b8" stroke-width="1" opacity="0.6" stroke-dasharray="8 6"/><text x="820.0" y="133.6" font-size="16" font-family="'Cascadia Code', 'JetBrains Mono', Consolas, monospace" fill="#94a3b8" opacity="0.6"><tspan x="820.0" dy="0" text-anchor="middle">Expert 1 (FFN)</tspan></text>
  <text x="905.0" y="130.7" font-size="12" font-family="'Cascadia Code', 'JetBrains Mono', Consolas, monospace" fill="#94a3b8" opacity="0.7"><tspan x="905.0" dy="0" text-anchor="start">g=0.05 不激活</tspan></text>
  <rect x="740" y="180" width="160" height="60" rx="8" ry="8" fill="#b2f2bb" stroke="#1e40af" stroke-width="2" opacity="1"/><text x="820.0" y="213.6" font-size="16" font-family="'Cascadia Code', 'JetBrains Mono', Consolas, monospace" fill="#1e40af" opacity="1"><tspan x="820.0" dy="0" text-anchor="middle">Expert 2 (FFN)</tspan></text>
  <text x="905.0" y="210.7" font-size="12" font-family="'Cascadia Code', 'JetBrains Mono', Consolas, monospace" fill="#166534" opacity="1"><tspan x="905.0" dy="0" text-anchor="start">g=0.6 ✓ 激活</tspan></text>
  <rect x="740" y="260" width="160" height="60" rx="8" ry="8" fill="#b2f2bb" stroke="#1e40af" stroke-width="2" opacity="1"/><text x="820.0" y="293.6" font-size="16" font-family="'Cascadia Code', 'JetBrains Mono', Consolas, monospace" fill="#1e40af" opacity="1"><tspan x="820.0" dy="0" text-anchor="middle">Expert 3 (FFN)</tspan></text>
  <text x="905.0" y="290.7" font-size="12" font-family="'Cascadia Code', 'JetBrains Mono', Consolas, monospace" fill="#166534" opacity="1"><tspan x="905.0" dy="0" text-anchor="start">g=0.3 ✓ 激活</tspan></text>
  <rect x="740" y="340" width="160" height="60" rx="8" ry="8" fill="#f1f5f9" stroke="#94a3b8" stroke-width="1" opacity="0.6" stroke-dasharray="8 6"/><text x="820.0" y="373.6" font-size="16" font-family="'Cascadia Code', 'JetBrains Mono', Consolas, monospace" fill="#94a3b8" opacity="0.6"><tspan x="820.0" dy="0" text-anchor="middle">Expert 4 (FFN)</tspan></text>
  <text x="905.0" y="370.7" font-size="12" font-family="'Cascadia Code', 'JetBrains Mono', Consolas, monospace" fill="#94a3b8" opacity="0.7"><tspan x="905.0" dy="0" text-anchor="start">g=0.05 不激活</tspan></text>
  <ellipse cx="1080" cy="275" rx="60" ry="35" fill="#ffd43b" stroke="#1e1e1e" stroke-width="2" opacity="1"/><text x="1080.0" y="269.0" font-size="15" font-family="'Cascadia Code', 'JetBrains Mono', Consolas, monospace" fill="#1e1e1e" opacity="1"><tspan x="1080.0" dy="0" text-anchor="middle">加权求和</tspan><tspan x="1080.0" dy="18.75" text-anchor="middle">Σ gᵢ·Eᵢ(x)</tspan></text>
  <rect x="1200" y="240" width="120" height="70" rx="8" ry="8" fill="#a5d8ff" stroke="#1e1e1e" stroke-width="2" opacity="1"/><text x="1260.0" y="278.6" font-size="16" font-family="'Cascadia Code', 'JetBrains Mono', Consolas, monospace" fill="#1e1e1e" opacity="1"><tspan x="1260.0" dy="0" text-anchor="middle">MoE 层输出 y</tspan></text>
  <path d="M200.0,275.0 L280.0,275.0" fill="none" stroke="#1e1e1e" stroke-width="2" opacity="1"/><polygon points="280.0,275.0 270.0,280.0 270.0,270.0" fill="#1e1e1e" stroke="#1e1e1e"/>
  <path d="M440.0,275.0 L520.0,275.0" fill="none" stroke="#1e1e1e" stroke-width="2" opacity="1"/><polygon points="520.0,275.0 510.0,280.0 510.0,270.0" fill="#1e1e1e" stroke="#1e1e1e"/>
  <path d="M660.0,275.0 L740.0,210.0" fill="none" stroke="#166534" stroke-width="2" opacity="1"/><polygon points="740.0,210.0 735.4,220.2 729.1,212.4" fill="#166534" stroke="#166534"/>
  <path d="M660.0,275.0 L740.0,290.0" fill="none" stroke="#166534" stroke-width="2" opacity="1"/><polygon points="740.0,290.0 729.2,293.1 731.1,283.2" fill="#166534" stroke="#166534"/>
  <path d="M900.0,210.0 L1020.0,275.0" fill="none" stroke="#166534" stroke-width="2" opacity="1"/><polygon points="1020.0,275.0 1008.8,274.6 1013.6,265.8" fill="#166534" stroke="#166534"/>
  <path d="M900.0,290.0 L1020.0,275.0" fill="none" stroke="#166534" stroke-width="2" opacity="1"/><polygon points="1020.0,275.0 1010.7,281.2 1009.5,271.3" fill="#166534" stroke="#166534"/>
  <path d="M1140.0,275.0 L1200.0,275.0" fill="none" stroke="#1e1e1e" stroke-width="2" opacity="1"/><polygon points="1200.0,275.0 1190.0,280.0 1190.0,270.0" fill="#1e1e1e" stroke="#1e1e1e"/>
  <text x="820.0" y="443.0" font-size="13" font-family="'Cascadia Code', 'JetBrains Mono', Consolas, monospace" fill="#64748b" opacity="1"><tspan x="820.0" dy="0" text-anchor="middle">绿色=激活  灰色虚线=未激活</tspan></text>
  <text x="500.0" y="443.0" font-size="13" font-family="'Cascadia Code', 'JetBrains Mono', Consolas, monospace" fill="#92400e" opacity="1"><tspan x="500.0" dy="0" text-anchor="middle">负载均衡：辅助损失 / 容量因子 / DeepSeek 无 aux-loss 偏置调节</tspan></text>
</svg>