<svg xmlns="http://www.w3.org/2000/svg" viewBox="180 0 652 866" width="652" height="866">
  <rect x="180" y="0" width="652" height="866" fill="#ffffff"/>
  <text x="460.0" y="44.0" font-size="24" font-family="'Cascadia Code', 'JetBrains Mono', Consolas, monospace" fill="#1e40af" opacity="1"><tspan x="460.0" dy="0" text-anchor="middle">Transformer Decoder-Only 块结构</tspan></text>
  <text x="460.0" y="70.0" font-size="14" font-family="'Cascadia Code', 'JetBrains Mono', Consolas, monospace" fill="#64748b" opacity="1"><tspan x="460.0" dy="0" text-anchor="middle">残差直通 + Pre-Norm 是堆深的关键</tspan></text>
  <ellipse cx="460" cy="140" rx="100" ry="30" fill="#fed7aa" stroke="#c2410c" stroke-width="2" opacity="1"/>
  <text x="460.0" y="134.5" font-size="15" font-family="'Cascadia Code', 'JetBrains Mono', Consolas, monospace" fill="#374151" opacity="1"><tspan x="460.0" dy="0" text-anchor="middle">Token Embedding</tspan><tspan x="460.0" dy="18.75" text-anchor="middle">+ 位置编码</tspan></text>
  <path d="M460.0,172.0 L460.0,210.0" fill="none" stroke="#1e3a5f" stroke-width="2" opacity="1"/><polygon points="460.0,210.0 455.0,200.0 465.0,200.0" fill="#1e3a5f" stroke="#1e3a5f"/>
  <rect x="200" y="210" width="520" height="460" rx="8" ry="8" fill="#f0f7ff" stroke="#1e3a5f" stroke-width="2" opacity="1" stroke-dasharray="8 6"/>
  <text x="218.0" y="236.0" font-size="16" font-family="'Cascadia Code', 'JetBrains Mono', Consolas, monospace" fill="#1e40af" opacity="1"><tspan x="218.0" dy="0" text-anchor="start">Decoder Block × L 层</tspan></text>
  <rect x="380" y="260" width="160" height="40" rx="8" ry="8" fill="#fef3c7" stroke="#b45309" stroke-width="2" opacity="1"/>
  <text x="460.0" y="283.6" font-size="14" font-family="'Cascadia Code', 'JetBrains Mono', Consolas, monospace" fill="#374151" opacity="1"><tspan x="460.0" dy="0" text-anchor="middle">RMSNorm (Pre-Norm)</tspan></text>
  <path d="M460.0,302.0 L460.0,330.0" fill="none" stroke="#1e3a5f" stroke-width="2" opacity="1"/><polygon points="460.0,330.0 455.0,320.0 465.0,320.0" fill="#1e3a5f" stroke="#1e3a5f"/>
  <rect x="340" y="330" width="240" height="70" rx="8" ry="8" fill="#ddd6fe" stroke="#6d28d9" stroke-width="2" opacity="1"/>
  <text x="460.0" y="359.4" font-size="14" font-family="'Cascadia Code', 'JetBrains Mono', Consolas, monospace" fill="#374151" opacity="1"><tspan x="460.0" dy="0" text-anchor="middle">多头自注意力 (MHA)</tspan><tspan x="460.0" dy="17.5" text-anchor="middle">因果掩码 · GQA/MLA</tspan></text>
  <ellipse cx="460" cy="428" rx="18" ry="18" fill="#a7f3d0" stroke="#047857" stroke-width="2" opacity="1"/>
  <text x="460.0" y="431.1" font-size="14" font-family="'Cascadia Code', 'JetBrains Mono', Consolas, monospace" fill="#374151" opacity="1"><tspan x="460.0" dy="0" text-anchor="middle">Add</tspan></text>
  <path d="M460.0,400.0 L460.0,412.0" fill="none" stroke="#1e3a5f" stroke-width="2" opacity="1"/><polygon points="460.0,412.0 455.0,402.0 465.0,402.0" fill="#1e3a5f" stroke="#1e3a5f"/>
  <path d="M240.0,280.0 L240.0,448.0 L440.0,448.0" fill="none" stroke="#047857" stroke-width="2" opacity="1" stroke-dasharray="8 6"/><polygon points="440.0,448.0 430.0,453.0 430.0,443.0" fill="#047857" stroke="#047857"/>
  <text x="338.0" y="363.9" font-size="13" font-family="'Cascadia Code', 'JetBrains Mono', Consolas, monospace" fill="#047857" opacity="1"><tspan x="338.0" dy="0" text-anchor="end">残差 x</tspan></text>
  <path d="M460.0,448.0 L460.0,470.0" fill="none" stroke="#1e3a5f" stroke-width="2" opacity="1"/><polygon points="460.0,470.0 455.0,460.0 465.0,460.0" fill="#1e3a5f" stroke="#1e3a5f"/>
  <rect x="380" y="470" width="160" height="40" rx="8" ry="8" fill="#fef3c7" stroke="#b45309" stroke-width="2" opacity="1"/>
  <text x="460.0" y="493.6" font-size="14" font-family="'Cascadia Code', 'JetBrains Mono', Consolas, monospace" fill="#374151" opacity="1"><tspan x="460.0" dy="0" text-anchor="middle">RMSNorm (Pre-Norm)</tspan></text>
  <path d="M460.0,512.0 L460.0,540.0" fill="none" stroke="#1e3a5f" stroke-width="2" opacity="1"/><polygon points="460.0,540.0 455.0,530.0 465.0,530.0" fill="#1e3a5f" stroke="#1e3a5f"/>
  <rect x="340" y="540" width="240" height="70" rx="8" ry="8" fill="#dbeafe" stroke="#1e3a5f" stroke-width="2" opacity="1"/>
  <text x="460.0" y="569.4" font-size="14" font-family="'Cascadia Code', 'JetBrains Mono', Consolas, monospace" fill="#374151" opacity="1"><tspan x="460.0" dy="0" text-anchor="middle">前馈网络 FFN</tspan><tspan x="460.0" dy="17.5" text-anchor="middle">SwiGLU · 中间维 8/3·d</tspan></text>
  <ellipse cx="460" cy="638" rx="18" ry="18" fill="#a7f3d0" stroke="#047857" stroke-width="2" opacity="1"/>
  <text x="460.0" y="641.1" font-size="14" font-family="'Cascadia Code', 'JetBrains Mono', Consolas, monospace" fill="#374151" opacity="1"><tspan x="460.0" dy="0" text-anchor="middle">Add</tspan></text>
  <path d="M460.0,610.0 L460.0,622.0" fill="none" stroke="#1e3a5f" stroke-width="2" opacity="1"/><polygon points="460.0,622.0 455.0,612.0 465.0,612.0" fill="#1e3a5f" stroke="#1e3a5f"/>
  <path d="M680.0,490.0 L680.0,638.0 L480.0,638.0" fill="none" stroke="#047857" stroke-width="2" opacity="1" stroke-dasharray="8 6"/><polygon points="480.0,638.0 490.0,633.0 490.0,643.0" fill="#047857" stroke="#047857"/>
  <text x="692.0" y="571.9" font-size="13" font-family="'Cascadia Code', 'JetBrains Mono', Consolas, monospace" fill="#047857" opacity="1"><tspan x="692.0" dy="0" text-anchor="start">残差 x</tspan></text>
  <path d="M460.0,658.0 L460.0,700.0" fill="none" stroke="#1e3a5f" stroke-width="2" opacity="1"/><polygon points="460.0,700.0 455.0,690.0 465.0,690.0" fill="#1e3a5f" stroke="#1e3a5f"/>
  <rect x="360" y="700" width="200" height="56" rx="8" ry="8" fill="#93c5fd" stroke="#1e3a5f" stroke-width="2" opacity="1"/>
  <text x="460.0" y="731.6" font-size="14" font-family="'Cascadia Code', 'JetBrains Mono', Consolas, monospace" fill="#374151" opacity="1"><tspan x="460.0" dy="0" text-anchor="middle">Norm + LM Head (Linear)</tspan></text>
  <path d="M460.0,758.0 L460.0,788.0" fill="none" stroke="#1e3a5f" stroke-width="2" opacity="1"/><polygon points="460.0,788.0 455.0,778.0 465.0,778.0" fill="#1e3a5f" stroke="#1e3a5f"/>
  <ellipse cx="460" cy="818" rx="100" ry="28" fill="#a7f3d0" stroke="#047857" stroke-width="2" opacity="1"/>
  <text x="460.0" y="821.9" font-size="15" font-family="'Cascadia Code', 'JetBrains Mono', Consolas, monospace" fill="#374151" opacity="1"><tspan x="460.0" dy="0" text-anchor="middle">Softmax → 下一 token</tspan></text>
</svg>